<mxfile host="app.diagrams.net" agent="Mozilla/5.0 (Windows NT 10.0; Win64; x64) AppleWebKit/537.36 (KHTML, like Gecko) Chrome/131.0.0.0 Safari/537.36" version="24.9.0">
  <diagram id="llW5VPJpyMsFq3GYHvGC" name="Page-1">
    <mxGraphModel dx="1910" dy="484" grid="1" gridSize="10" guides="1" tooltips="1" connect="1" arrows="1" fold="1" page="1" pageScale="1" pageWidth="850" pageHeight="1100" math="0" shadow="0">
      <root>
        <mxCell id="0" />
        <mxCell id="1" parent="0" />
        <mxCell id="XNacZ7h2Ybe1KB6YE8v2-1" value="User" style="whiteSpace=wrap;html=1;align=center;" parent="1" vertex="1">
          <mxGeometry x="70" y="120" width="100" height="40" as="geometry" />
        </mxCell>
        <mxCell id="XNacZ7h2Ybe1KB6YE8v2-2" value="Dokter gigi" style="whiteSpace=wrap;html=1;align=center;" parent="1" vertex="1">
          <mxGeometry x="1290" y="630" width="100" height="40" as="geometry" />
        </mxCell>
        <mxCell id="XNacZ7h2Ybe1KB6YE8v2-3" value="Artikel" style="whiteSpace=wrap;html=1;align=center;" parent="1" vertex="1">
          <mxGeometry x="725" y="150" width="100" height="40" as="geometry" />
        </mxCell>
        <mxCell id="XNacZ7h2Ybe1KB6YE8v2-4" value="kategori" style="whiteSpace=wrap;html=1;align=center;" parent="1" vertex="1">
          <mxGeometry x="-60" y="540" width="100" height="40" as="geometry" />
        </mxCell>
        <mxCell id="XNacZ7h2Ybe1KB6YE8v2-5" value="Kategori_artikel" style="whiteSpace=wrap;html=1;align=center;" parent="1" vertex="1">
          <mxGeometry x="1490" y="450" width="100" height="40" as="geometry" />
        </mxCell>
        <mxCell id="XNacZ7h2Ybe1KB6YE8v2-6" value="Janji_temu" style="whiteSpace=wrap;html=1;align=center;" parent="1" vertex="1">
          <mxGeometry x="1310" y="150" width="100" height="40" as="geometry" />
        </mxCell>
        <mxCell id="XNacZ7h2Ybe1KB6YE8v2-7" value="Review" style="whiteSpace=wrap;html=1;align=center;" parent="1" vertex="1">
          <mxGeometry x="670" y="640" width="100" height="40" as="geometry" />
        </mxCell>
        <mxCell id="XNacZ7h2Ybe1KB6YE8v2-9" value="kata_sandi_pengguna" style="ellipse;whiteSpace=wrap;html=1;align=center;" parent="1" vertex="1">
          <mxGeometry x="30" y="260" width="120" height="40" as="geometry" />
        </mxCell>
        <mxCell id="XNacZ7h2Ybe1KB6YE8v2-10" value="waktu_pembuatan_akun" style="ellipse;whiteSpace=wrap;html=1;align=center;" parent="1" vertex="1">
          <mxGeometry x="-80" y="190" width="120" height="50" as="geometry" />
        </mxCell>
        <mxCell id="XNacZ7h2Ybe1KB6YE8v2-12" value="nama_user" style="ellipse;whiteSpace=wrap;html=1;align=center;" parent="1" vertex="1">
          <mxGeometry x="130" y="40" width="100" height="40" as="geometry" />
        </mxCell>
        <mxCell id="XNacZ7h2Ybe1KB6YE8v2-14" value="" style="endArrow=none;html=1;rounded=0;entryX=1;entryY=0;entryDx=0;entryDy=0;exitX=0.5;exitY=1;exitDx=0;exitDy=0;" parent="1" source="XNacZ7h2Ybe1KB6YE8v2-12" target="XNacZ7h2Ybe1KB6YE8v2-1" edge="1">
          <mxGeometry relative="1" as="geometry">
            <mxPoint x="60" y="110" as="sourcePoint" />
            <mxPoint x="220" y="110" as="targetPoint" />
          </mxGeometry>
        </mxCell>
        <mxCell id="XNacZ7h2Ybe1KB6YE8v2-15" value="" style="endArrow=none;html=1;rounded=0;entryX=0;entryY=0.5;entryDx=0;entryDy=0;" parent="1" source="XNacZ7h2Ybe1KB6YE8v2-20" target="XNacZ7h2Ybe1KB6YE8v2-1" edge="1">
          <mxGeometry relative="1" as="geometry">
            <mxPoint x="32.12678125181674" y="79.40285000290714" as="sourcePoint" />
            <mxPoint x="160" y="150" as="targetPoint" />
          </mxGeometry>
        </mxCell>
        <mxCell id="XNacZ7h2Ybe1KB6YE8v2-16" value="" style="endArrow=none;html=1;rounded=0;entryX=0.5;entryY=0;entryDx=0;entryDy=0;exitX=0.25;exitY=1;exitDx=0;exitDy=0;" parent="1" source="XNacZ7h2Ybe1KB6YE8v2-1" target="XNacZ7h2Ybe1KB6YE8v2-9" edge="1">
          <mxGeometry relative="1" as="geometry">
            <mxPoint x="120" y="190" as="sourcePoint" />
            <mxPoint x="280" y="190" as="targetPoint" />
          </mxGeometry>
        </mxCell>
        <mxCell id="XNacZ7h2Ybe1KB6YE8v2-17" value="" style="endArrow=none;html=1;rounded=0;entryX=0;entryY=1;entryDx=0;entryDy=0;exitX=0.667;exitY=0;exitDx=0;exitDy=0;exitPerimeter=0;" parent="1" source="XNacZ7h2Ybe1KB6YE8v2-10" target="XNacZ7h2Ybe1KB6YE8v2-1" edge="1">
          <mxGeometry relative="1" as="geometry">
            <mxPoint y="190" as="sourcePoint" />
            <mxPoint x="160" y="190" as="targetPoint" />
          </mxGeometry>
        </mxCell>
        <mxCell id="XNacZ7h2Ybe1KB6YE8v2-19" value="" style="endArrow=none;html=1;rounded=0;exitX=1;exitY=0.5;exitDx=0;exitDy=0;entryX=0;entryY=0.5;entryDx=0;entryDy=0;" parent="1" source="XNacZ7h2Ybe1KB6YE8v2-1" target="XNacZ7h2Ybe1KB6YE8v2-21" edge="1">
          <mxGeometry relative="1" as="geometry">
            <mxPoint x="240" y="90" as="sourcePoint" />
            <mxPoint x="200" y="140" as="targetPoint" />
          </mxGeometry>
        </mxCell>
        <mxCell id="XNacZ7h2Ybe1KB6YE8v2-20" value="ID_user" style="ellipse;whiteSpace=wrap;html=1;align=center;fontStyle=4;" parent="1" vertex="1">
          <mxGeometry x="-20" y="40" width="100" height="40" as="geometry" />
        </mxCell>
        <mxCell id="XNacZ7h2Ybe1KB6YE8v2-21" value="email user" style="ellipse;whiteSpace=wrap;html=1;align=center;fontStyle=4;" parent="1" vertex="1">
          <mxGeometry x="210" y="90" width="100" height="40" as="geometry" />
        </mxCell>
        <mxCell id="XNacZ7h2Ybe1KB6YE8v2-23" value="ID artikel" style="ellipse;whiteSpace=wrap;html=1;align=center;fontStyle=4;" parent="1" vertex="1">
          <mxGeometry x="640" y="50" width="100" height="40" as="geometry" />
        </mxCell>
        <mxCell id="XNacZ7h2Ybe1KB6YE8v2-24" value="judul_artikel" style="ellipse;whiteSpace=wrap;html=1;align=center;" parent="1" vertex="1">
          <mxGeometry x="630" y="250" width="100" height="40" as="geometry" />
        </mxCell>
        <mxCell id="XNacZ7h2Ybe1KB6YE8v2-25" value="isi_artikel" style="ellipse;whiteSpace=wrap;html=1;align=center;" parent="1" vertex="1">
          <mxGeometry x="750" y="245" width="100" height="40" as="geometry" />
        </mxCell>
        <mxCell id="fL2hwrwUGkBLxSaO8x_B-1" value="" style="endArrow=none;html=1;rounded=0;entryX=0.5;entryY=1;entryDx=0;entryDy=0;exitX=0;exitY=0;exitDx=0;exitDy=0;" edge="1" parent="1" source="XNacZ7h2Ybe1KB6YE8v2-3" target="XNacZ7h2Ybe1KB6YE8v2-23">
          <mxGeometry width="50" height="50" relative="1" as="geometry">
            <mxPoint x="580" y="140" as="sourcePoint" />
            <mxPoint x="490" y="110" as="targetPoint" />
          </mxGeometry>
        </mxCell>
        <mxCell id="fL2hwrwUGkBLxSaO8x_B-2" value="" style="endArrow=none;html=1;rounded=0;entryX=0.75;entryY=1;entryDx=0;entryDy=0;exitX=0.5;exitY=0;exitDx=0;exitDy=0;" edge="1" parent="1" source="XNacZ7h2Ybe1KB6YE8v2-25" target="XNacZ7h2Ybe1KB6YE8v2-3">
          <mxGeometry width="50" height="50" relative="1" as="geometry">
            <mxPoint x="490" y="230" as="sourcePoint" />
            <mxPoint x="540" y="180" as="targetPoint" />
          </mxGeometry>
        </mxCell>
        <mxCell id="fL2hwrwUGkBLxSaO8x_B-3" value="" style="endArrow=none;html=1;rounded=0;entryX=0;entryY=1;entryDx=0;entryDy=0;exitX=0.5;exitY=0;exitDx=0;exitDy=0;" edge="1" parent="1" source="XNacZ7h2Ybe1KB6YE8v2-24" target="XNacZ7h2Ybe1KB6YE8v2-3">
          <mxGeometry width="50" height="50" relative="1" as="geometry">
            <mxPoint x="420" y="300" as="sourcePoint" />
            <mxPoint x="470" y="250" as="targetPoint" />
          </mxGeometry>
        </mxCell>
        <mxCell id="fL2hwrwUGkBLxSaO8x_B-4" value="ID pengguna" style="ellipse;whiteSpace=wrap;html=1;align=center;fontStyle=4;" vertex="1" parent="1">
          <mxGeometry x="740" y="40" width="100" height="40" as="geometry" />
        </mxCell>
        <mxCell id="fL2hwrwUGkBLxSaO8x_B-5" value="" style="endArrow=none;html=1;rounded=0;entryX=0.5;entryY=1;entryDx=0;entryDy=0;" edge="1" parent="1" source="XNacZ7h2Ybe1KB6YE8v2-3" target="fL2hwrwUGkBLxSaO8x_B-4">
          <mxGeometry relative="1" as="geometry">
            <mxPoint x="570" y="130" as="sourcePoint" />
            <mxPoint x="730" y="130" as="targetPoint" />
          </mxGeometry>
        </mxCell>
        <mxCell id="fL2hwrwUGkBLxSaO8x_B-6" value="waktu_pembuatan_artikel" style="ellipse;whiteSpace=wrap;html=1;align=center;" vertex="1" parent="1">
          <mxGeometry x="820" y="80" width="130" height="50" as="geometry" />
        </mxCell>
        <mxCell id="fL2hwrwUGkBLxSaO8x_B-7" value="waktu_update_artikel" style="ellipse;whiteSpace=wrap;html=1;align=center;" vertex="1" parent="1">
          <mxGeometry x="860" y="240" width="130" height="40" as="geometry" />
        </mxCell>
        <mxCell id="fL2hwrwUGkBLxSaO8x_B-8" value="" style="endArrow=none;html=1;rounded=0;entryX=0.077;entryY=0.8;entryDx=0;entryDy=0;entryPerimeter=0;exitX=1;exitY=0.5;exitDx=0;exitDy=0;" edge="1" parent="1" source="XNacZ7h2Ybe1KB6YE8v2-3" target="fL2hwrwUGkBLxSaO8x_B-6">
          <mxGeometry relative="1" as="geometry">
            <mxPoint x="560" y="140" as="sourcePoint" />
            <mxPoint x="720" y="140" as="targetPoint" />
          </mxGeometry>
        </mxCell>
        <mxCell id="fL2hwrwUGkBLxSaO8x_B-9" value="" style="endArrow=none;html=1;rounded=0;exitX=0.86;exitY=1;exitDx=0;exitDy=0;exitPerimeter=0;" edge="1" parent="1" source="XNacZ7h2Ybe1KB6YE8v2-3" target="fL2hwrwUGkBLxSaO8x_B-7">
          <mxGeometry relative="1" as="geometry">
            <mxPoint x="580" y="180" as="sourcePoint" />
            <mxPoint x="740" y="180" as="targetPoint" />
          </mxGeometry>
        </mxCell>
        <mxCell id="fL2hwrwUGkBLxSaO8x_B-10" value="ID kategori" style="ellipse;whiteSpace=wrap;html=1;align=center;fontStyle=4;" vertex="1" parent="1">
          <mxGeometry x="-150" y="460" width="100" height="40" as="geometry" />
        </mxCell>
        <mxCell id="fL2hwrwUGkBLxSaO8x_B-11" value="deskripsi_kategori" style="ellipse;whiteSpace=wrap;html=1;align=center;" vertex="1" parent="1">
          <mxGeometry x="-60" y="620" width="100" height="40" as="geometry" />
        </mxCell>
        <mxCell id="fL2hwrwUGkBLxSaO8x_B-13" value="komentar_pengguna" style="ellipse;whiteSpace=wrap;html=1;align=center;" vertex="1" parent="1">
          <mxGeometry x="490" y="650" width="100" height="40" as="geometry" />
        </mxCell>
        <mxCell id="fL2hwrwUGkBLxSaO8x_B-14" value="ID review" style="ellipse;whiteSpace=wrap;html=1;align=center;fontStyle=4;" vertex="1" parent="1">
          <mxGeometry x="550" y="520" width="100" height="40" as="geometry" />
        </mxCell>
        <mxCell id="fL2hwrwUGkBLxSaO8x_B-15" value="ID pengguna" style="ellipse;whiteSpace=wrap;html=1;align=center;fontStyle=4;" vertex="1" parent="1">
          <mxGeometry x="800" y="560" width="100" height="40" as="geometry" />
        </mxCell>
        <mxCell id="fL2hwrwUGkBLxSaO8x_B-16" value="ID dokter" style="ellipse;whiteSpace=wrap;html=1;align=center;fontStyle=4;" vertex="1" parent="1">
          <mxGeometry x="790" y="690" width="100" height="40" as="geometry" />
        </mxCell>
        <mxCell id="fL2hwrwUGkBLxSaO8x_B-17" value="ID janji temu" style="ellipse;whiteSpace=wrap;html=1;align=center;fontStyle=4;" vertex="1" parent="1">
          <mxGeometry x="1160" y="70" width="100" height="40" as="geometry" />
        </mxCell>
        <mxCell id="fL2hwrwUGkBLxSaO8x_B-18" value="nama_kategori" style="ellipse;whiteSpace=wrap;html=1;align=center;" vertex="1" parent="1">
          <mxGeometry x="40" y="590" width="100" height="40" as="geometry" />
        </mxCell>
        <mxCell id="fL2hwrwUGkBLxSaO8x_B-19" value="rating_dokter" style="ellipse;whiteSpace=wrap;html=1;align=center;" vertex="1" parent="1">
          <mxGeometry x="580" y="730" width="100" height="40" as="geometry" />
        </mxCell>
        <mxCell id="fL2hwrwUGkBLxSaO8x_B-20" value="ID dokter" style="ellipse;whiteSpace=wrap;html=1;align=center;fontStyle=4;" vertex="1" parent="1">
          <mxGeometry x="1440" y="70" width="100" height="40" as="geometry" />
        </mxCell>
        <mxCell id="fL2hwrwUGkBLxSaO8x_B-21" value="ID pengguna" style="ellipse;whiteSpace=wrap;html=1;align=center;fontStyle=4;" vertex="1" parent="1">
          <mxGeometry x="1230" y="230" width="100" height="40" as="geometry" />
        </mxCell>
        <mxCell id="fL2hwrwUGkBLxSaO8x_B-22" value="waktu_janji_temu" style="ellipse;whiteSpace=wrap;html=1;align=center;" vertex="1" parent="1">
          <mxGeometry x="1480" y="205" width="100" height="40" as="geometry" />
        </mxCell>
        <mxCell id="fL2hwrwUGkBLxSaO8x_B-23" value="status_janji_temu" style="ellipse;whiteSpace=wrap;html=1;align=center;" vertex="1" parent="1">
          <mxGeometry x="1350" y="230" width="100" height="40" as="geometry" />
        </mxCell>
        <mxCell id="fL2hwrwUGkBLxSaO8x_B-24" value="tanggal_janji_temu" style="ellipse;whiteSpace=wrap;html=1;align=center;" vertex="1" parent="1">
          <mxGeometry x="1280" y="60" width="100" height="40" as="geometry" />
        </mxCell>
        <mxCell id="fL2hwrwUGkBLxSaO8x_B-25" value="ID artikel" style="ellipse;whiteSpace=wrap;html=1;align=center;fontStyle=4;" vertex="1" parent="1">
          <mxGeometry x="1450" y="360" width="100" height="40" as="geometry" />
        </mxCell>
        <mxCell id="fL2hwrwUGkBLxSaO8x_B-26" value="ID kategori art" style="ellipse;whiteSpace=wrap;html=1;align=center;fontStyle=4;" vertex="1" parent="1">
          <mxGeometry x="1600" y="510" width="100" height="40" as="geometry" />
        </mxCell>
        <mxCell id="fL2hwrwUGkBLxSaO8x_B-27" value="ID dokter gigi" style="ellipse;whiteSpace=wrap;html=1;align=center;fontStyle=4;" vertex="1" parent="1">
          <mxGeometry x="1150" y="550" width="100" height="40" as="geometry" />
        </mxCell>
        <mxCell id="fL2hwrwUGkBLxSaO8x_B-28" value="informasi_kontak" style="ellipse;whiteSpace=wrap;html=1;align=center;" vertex="1" parent="1">
          <mxGeometry x="1225" y="710" width="100" height="40" as="geometry" />
        </mxCell>
        <mxCell id="fL2hwrwUGkBLxSaO8x_B-29" value="nama_dokter_gigi" style="ellipse;whiteSpace=wrap;html=1;align=center;" vertex="1" parent="1">
          <mxGeometry x="1390" y="560" width="100" height="40" as="geometry" />
        </mxCell>
        <mxCell id="fL2hwrwUGkBLxSaO8x_B-30" value="spesialis_dokter" style="ellipse;whiteSpace=wrap;html=1;align=center;" vertex="1" parent="1">
          <mxGeometry x="1410" y="700" width="100" height="40" as="geometry" />
        </mxCell>
        <mxCell id="fL2hwrwUGkBLxSaO8x_B-33" value="" style="endArrow=none;html=1;rounded=0;entryX=0.649;entryY=0.974;entryDx=0;entryDy=0;exitX=0.546;exitY=-0.032;exitDx=0;exitDy=0;exitPerimeter=0;entryPerimeter=0;" edge="1" parent="1" source="fL2hwrwUGkBLxSaO8x_B-11" target="XNacZ7h2Ybe1KB6YE8v2-4">
          <mxGeometry relative="1" as="geometry">
            <mxPoint x="-20" y="560" as="sourcePoint" />
            <mxPoint x="140" y="560" as="targetPoint" />
          </mxGeometry>
        </mxCell>
        <mxCell id="fL2hwrwUGkBLxSaO8x_B-34" value="" style="endArrow=none;html=1;rounded=0;exitX=0.842;exitY=0.979;exitDx=0;exitDy=0;exitPerimeter=0;" edge="1" parent="1" source="XNacZ7h2Ybe1KB6YE8v2-4" target="fL2hwrwUGkBLxSaO8x_B-18">
          <mxGeometry relative="1" as="geometry">
            <mxPoint x="100" y="410" as="sourcePoint" />
            <mxPoint x="260" y="410" as="targetPoint" />
          </mxGeometry>
        </mxCell>
        <mxCell id="fL2hwrwUGkBLxSaO8x_B-36" value="" style="endArrow=none;html=1;rounded=0;entryX=0;entryY=0;entryDx=0;entryDy=0;exitX=0.5;exitY=1;exitDx=0;exitDy=0;" edge="1" parent="1" source="fL2hwrwUGkBLxSaO8x_B-10" target="XNacZ7h2Ybe1KB6YE8v2-4">
          <mxGeometry relative="1" as="geometry">
            <mxPoint x="-40" y="440" as="sourcePoint" />
            <mxPoint x="120" y="440" as="targetPoint" />
          </mxGeometry>
        </mxCell>
        <mxCell id="fL2hwrwUGkBLxSaO8x_B-37" value="" style="endArrow=none;html=1;rounded=0;entryX=0.25;entryY=1;entryDx=0;entryDy=0;exitX=0.5;exitY=0;exitDx=0;exitDy=0;" edge="1" parent="1" source="fL2hwrwUGkBLxSaO8x_B-19" target="XNacZ7h2Ybe1KB6YE8v2-7">
          <mxGeometry relative="1" as="geometry">
            <mxPoint x="530" y="580" as="sourcePoint" />
            <mxPoint x="690" y="580" as="targetPoint" />
          </mxGeometry>
        </mxCell>
        <mxCell id="fL2hwrwUGkBLxSaO8x_B-38" value="" style="endArrow=none;html=1;rounded=0;entryX=0.206;entryY=0.918;entryDx=0;entryDy=0;entryPerimeter=0;" edge="1" parent="1" source="XNacZ7h2Ybe1KB6YE8v2-7" target="fL2hwrwUGkBLxSaO8x_B-16">
          <mxGeometry relative="1" as="geometry">
            <mxPoint x="740" y="620" as="sourcePoint" />
            <mxPoint x="900" y="620" as="targetPoint" />
          </mxGeometry>
        </mxCell>
        <mxCell id="fL2hwrwUGkBLxSaO8x_B-39" value="" style="endArrow=none;html=1;rounded=0;entryX=0;entryY=0.25;entryDx=0;entryDy=0;" edge="1" parent="1" source="fL2hwrwUGkBLxSaO8x_B-13" target="XNacZ7h2Ybe1KB6YE8v2-7">
          <mxGeometry relative="1" as="geometry">
            <mxPoint x="510" y="510" as="sourcePoint" />
            <mxPoint x="670" y="510" as="targetPoint" />
          </mxGeometry>
        </mxCell>
        <mxCell id="fL2hwrwUGkBLxSaO8x_B-40" value="" style="endArrow=none;html=1;rounded=0;entryX=0.5;entryY=0;entryDx=0;entryDy=0;exitX=0.569;exitY=1.011;exitDx=0;exitDy=0;exitPerimeter=0;" edge="1" parent="1" source="fL2hwrwUGkBLxSaO8x_B-14" target="XNacZ7h2Ybe1KB6YE8v2-7">
          <mxGeometry relative="1" as="geometry">
            <mxPoint x="560" y="470" as="sourcePoint" />
            <mxPoint x="720" y="470" as="targetPoint" />
          </mxGeometry>
        </mxCell>
        <mxCell id="fL2hwrwUGkBLxSaO8x_B-41" value="" style="endArrow=none;html=1;rounded=0;exitX=0.96;exitY=0.004;exitDx=0;exitDy=0;exitPerimeter=0;" edge="1" parent="1" source="XNacZ7h2Ybe1KB6YE8v2-7" target="fL2hwrwUGkBLxSaO8x_B-15">
          <mxGeometry relative="1" as="geometry">
            <mxPoint x="660" y="500" as="sourcePoint" />
            <mxPoint x="820" y="500" as="targetPoint" />
          </mxGeometry>
        </mxCell>
        <mxCell id="fL2hwrwUGkBLxSaO8x_B-42" value="" style="endArrow=none;html=1;rounded=0;entryX=0.32;entryY=-0.029;entryDx=0;entryDy=0;entryPerimeter=0;exitX=1;exitY=0;exitDx=0;exitDy=0;" edge="1" parent="1" source="fL2hwrwUGkBLxSaO8x_B-27" target="XNacZ7h2Ybe1KB6YE8v2-2">
          <mxGeometry relative="1" as="geometry">
            <mxPoint x="1130" y="530" as="sourcePoint" />
            <mxPoint x="1290" y="530" as="targetPoint" />
          </mxGeometry>
        </mxCell>
        <mxCell id="fL2hwrwUGkBLxSaO8x_B-43" value="" style="endArrow=none;html=1;rounded=0;entryX=0;entryY=0.75;entryDx=0;entryDy=0;" edge="1" parent="1" source="fL2hwrwUGkBLxSaO8x_B-28" target="XNacZ7h2Ybe1KB6YE8v2-2">
          <mxGeometry relative="1" as="geometry">
            <mxPoint x="1030" y="640" as="sourcePoint" />
            <mxPoint x="1190" y="640" as="targetPoint" />
          </mxGeometry>
        </mxCell>
        <mxCell id="fL2hwrwUGkBLxSaO8x_B-44" value="" style="endArrow=none;html=1;rounded=0;entryX=0.37;entryY=1.013;entryDx=0;entryDy=0;entryPerimeter=0;" edge="1" parent="1" source="XNacZ7h2Ybe1KB6YE8v2-2" target="fL2hwrwUGkBLxSaO8x_B-29">
          <mxGeometry relative="1" as="geometry">
            <mxPoint x="1250" y="569.1700000000001" as="sourcePoint" />
            <mxPoint x="1410" y="569.1700000000001" as="targetPoint" />
          </mxGeometry>
        </mxCell>
        <mxCell id="fL2hwrwUGkBLxSaO8x_B-45" value="" style="endArrow=none;html=1;rounded=0;entryX=0;entryY=0;entryDx=0;entryDy=0;exitX=0.812;exitY=1.033;exitDx=0;exitDy=0;exitPerimeter=0;" edge="1" parent="1" source="XNacZ7h2Ybe1KB6YE8v2-2" target="fL2hwrwUGkBLxSaO8x_B-30">
          <mxGeometry relative="1" as="geometry">
            <mxPoint x="1260" y="660" as="sourcePoint" />
            <mxPoint x="1360" y="610" as="targetPoint" />
          </mxGeometry>
        </mxCell>
        <mxCell id="fL2hwrwUGkBLxSaO8x_B-46" value="" style="endArrow=none;html=1;rounded=0;entryX=0.5;entryY=1;entryDx=0;entryDy=0;exitX=0.5;exitY=0;exitDx=0;exitDy=0;" edge="1" parent="1" source="XNacZ7h2Ybe1KB6YE8v2-5" target="fL2hwrwUGkBLxSaO8x_B-25">
          <mxGeometry relative="1" as="geometry">
            <mxPoint x="1450" y="300" as="sourcePoint" />
            <mxPoint x="1610" y="300" as="targetPoint" />
          </mxGeometry>
        </mxCell>
        <mxCell id="fL2hwrwUGkBLxSaO8x_B-47" value="" style="endArrow=none;html=1;rounded=0;entryX=0.75;entryY=1;entryDx=0;entryDy=0;exitX=0.366;exitY=0.032;exitDx=0;exitDy=0;exitPerimeter=0;" edge="1" parent="1" source="fL2hwrwUGkBLxSaO8x_B-26" target="XNacZ7h2Ybe1KB6YE8v2-5">
          <mxGeometry relative="1" as="geometry">
            <mxPoint x="1610" y="460" as="sourcePoint" />
            <mxPoint x="1770" y="460" as="targetPoint" />
          </mxGeometry>
        </mxCell>
        <mxCell id="fL2hwrwUGkBLxSaO8x_B-48" value="" style="endArrow=none;html=1;rounded=0;entryX=0.5;entryY=1;entryDx=0;entryDy=0;exitX=0.46;exitY=0.004;exitDx=0;exitDy=0;exitPerimeter=0;" edge="1" parent="1" source="fL2hwrwUGkBLxSaO8x_B-23" target="XNacZ7h2Ybe1KB6YE8v2-6">
          <mxGeometry relative="1" as="geometry">
            <mxPoint x="1070" y="239.43" as="sourcePoint" />
            <mxPoint x="1230" y="239.43" as="targetPoint" />
          </mxGeometry>
        </mxCell>
        <mxCell id="fL2hwrwUGkBLxSaO8x_B-49" value="" style="endArrow=none;html=1;rounded=0;entryX=0;entryY=0.5;entryDx=0;entryDy=0;exitX=0.56;exitY=0.004;exitDx=0;exitDy=0;exitPerimeter=0;" edge="1" parent="1" source="fL2hwrwUGkBLxSaO8x_B-21" target="XNacZ7h2Ybe1KB6YE8v2-6">
          <mxGeometry relative="1" as="geometry">
            <mxPoint x="930" y="199.43" as="sourcePoint" />
            <mxPoint x="1090" y="199.43" as="targetPoint" />
          </mxGeometry>
        </mxCell>
        <mxCell id="fL2hwrwUGkBLxSaO8x_B-50" value="" style="endArrow=none;html=1;rounded=0;exitX=0.5;exitY=1;exitDx=0;exitDy=0;" edge="1" parent="1" source="fL2hwrwUGkBLxSaO8x_B-17" target="XNacZ7h2Ybe1KB6YE8v2-6">
          <mxGeometry relative="1" as="geometry">
            <mxPoint x="1010" y="110" as="sourcePoint" />
            <mxPoint x="1170" y="110" as="targetPoint" />
          </mxGeometry>
        </mxCell>
        <mxCell id="fL2hwrwUGkBLxSaO8x_B-51" value="" style="endArrow=none;html=1;rounded=0;entryX=0.574;entryY=0.989;entryDx=0;entryDy=0;entryPerimeter=0;exitX=0.883;exitY=-0.007;exitDx=0;exitDy=0;exitPerimeter=0;" edge="1" parent="1" source="XNacZ7h2Ybe1KB6YE8v2-6" target="fL2hwrwUGkBLxSaO8x_B-24">
          <mxGeometry relative="1" as="geometry">
            <mxPoint x="1150" y="150" as="sourcePoint" />
            <mxPoint x="1270" y="130" as="targetPoint" />
          </mxGeometry>
        </mxCell>
        <mxCell id="fL2hwrwUGkBLxSaO8x_B-53" value="" style="endArrow=none;html=1;rounded=0;entryX=0.457;entryY=0.968;entryDx=0;entryDy=0;entryPerimeter=0;exitX=1;exitY=0.25;exitDx=0;exitDy=0;" edge="1" parent="1" source="XNacZ7h2Ybe1KB6YE8v2-6" target="fL2hwrwUGkBLxSaO8x_B-20">
          <mxGeometry relative="1" as="geometry">
            <mxPoint x="1180" y="139.71" as="sourcePoint" />
            <mxPoint x="1340" y="139.71" as="targetPoint" />
          </mxGeometry>
        </mxCell>
        <mxCell id="fL2hwrwUGkBLxSaO8x_B-54" value="" style="endArrow=none;html=1;rounded=0;entryX=0;entryY=0;entryDx=0;entryDy=0;exitX=1;exitY=0.75;exitDx=0;exitDy=0;" edge="1" parent="1" source="XNacZ7h2Ybe1KB6YE8v2-6" target="fL2hwrwUGkBLxSaO8x_B-22">
          <mxGeometry relative="1" as="geometry">
            <mxPoint x="1210" y="190" as="sourcePoint" />
            <mxPoint x="1370" y="190" as="targetPoint" />
          </mxGeometry>
        </mxCell>
        <mxCell id="fL2hwrwUGkBLxSaO8x_B-55" value="waktu_pembuatan_review" style="ellipse;whiteSpace=wrap;html=1;align=center;" vertex="1" parent="1">
          <mxGeometry x="690" y="510" width="135" height="40" as="geometry" />
        </mxCell>
        <mxCell id="fL2hwrwUGkBLxSaO8x_B-56" value="" style="endArrow=none;html=1;rounded=0;entryX=0.5;entryY=1;entryDx=0;entryDy=0;exitX=0.75;exitY=0;exitDx=0;exitDy=0;" edge="1" parent="1" source="XNacZ7h2Ybe1KB6YE8v2-7" target="fL2hwrwUGkBLxSaO8x_B-55">
          <mxGeometry relative="1" as="geometry">
            <mxPoint x="600" y="450" as="sourcePoint" />
            <mxPoint x="760" y="450" as="targetPoint" />
          </mxGeometry>
        </mxCell>
        <mxCell id="fL2hwrwUGkBLxSaO8x_B-58" value="membaca_artikel" style="shape=rhombus;perimeter=rhombusPerimeter;whiteSpace=wrap;html=1;align=center;" vertex="1" parent="1">
          <mxGeometry x="340" y="195" width="120" height="60" as="geometry" />
        </mxCell>
        <mxCell id="fL2hwrwUGkBLxSaO8x_B-59" value="" style="endArrow=none;html=1;rounded=0;entryX=0;entryY=0;entryDx=0;entryDy=0;exitX=1;exitY=0.75;exitDx=0;exitDy=0;" edge="1" parent="1" source="XNacZ7h2Ybe1KB6YE8v2-1" target="fL2hwrwUGkBLxSaO8x_B-58">
          <mxGeometry relative="1" as="geometry">
            <mxPoint x="210" y="170" as="sourcePoint" />
            <mxPoint x="370" y="170" as="targetPoint" />
          </mxGeometry>
        </mxCell>
        <mxCell id="fL2hwrwUGkBLxSaO8x_B-60" value="" style="endArrow=none;html=1;rounded=0;exitX=1;exitY=0;exitDx=0;exitDy=0;" edge="1" parent="1" source="fL2hwrwUGkBLxSaO8x_B-58" target="XNacZ7h2Ybe1KB6YE8v2-3">
          <mxGeometry relative="1" as="geometry">
            <mxPoint x="430" y="180" as="sourcePoint" />
            <mxPoint x="590" y="180" as="targetPoint" />
            <Array as="points">
              <mxPoint x="570" y="170" />
            </Array>
          </mxGeometry>
        </mxCell>
        <mxCell id="fL2hwrwUGkBLxSaO8x_B-61" value="jenis_artikel" style="shape=rhombus;perimeter=rhombusPerimeter;whiteSpace=wrap;html=1;align=center;" vertex="1" parent="1">
          <mxGeometry x="300" y="400" width="120" height="60" as="geometry" />
        </mxCell>
        <mxCell id="fL2hwrwUGkBLxSaO8x_B-62" value="" style="endArrow=none;html=1;rounded=0;entryX=0;entryY=0.75;entryDx=0;entryDy=0;exitX=1;exitY=0;exitDx=0;exitDy=0;" edge="1" parent="1" source="fL2hwrwUGkBLxSaO8x_B-61" target="XNacZ7h2Ybe1KB6YE8v2-3">
          <mxGeometry relative="1" as="geometry">
            <mxPoint x="340" y="380" as="sourcePoint" />
            <mxPoint x="500" y="380" as="targetPoint" />
          </mxGeometry>
        </mxCell>
        <mxCell id="fL2hwrwUGkBLxSaO8x_B-64" value="" style="endArrow=none;html=1;rounded=0;exitX=0.5;exitY=0;exitDx=0;exitDy=0;entryX=0;entryY=1;entryDx=0;entryDy=0;" edge="1" parent="1" source="XNacZ7h2Ybe1KB6YE8v2-4" target="fL2hwrwUGkBLxSaO8x_B-61">
          <mxGeometry relative="1" as="geometry">
            <mxPoint x="-20" y="530" as="sourcePoint" />
            <mxPoint x="240" y="460" as="targetPoint" />
          </mxGeometry>
        </mxCell>
        <mxCell id="fL2hwrwUGkBLxSaO8x_B-65" value="janji_temu&amp;amp;konsultasi" style="shape=rhombus;perimeter=rhombusPerimeter;whiteSpace=wrap;html=1;align=center;" vertex="1" parent="1">
          <mxGeometry x="650" y="360" width="120" height="60" as="geometry" />
        </mxCell>
        <mxCell id="fL2hwrwUGkBLxSaO8x_B-66" value="" style="endArrow=none;html=1;rounded=0;exitX=0.844;exitY=1.004;exitDx=0;exitDy=0;exitPerimeter=0;" edge="1" parent="1" source="XNacZ7h2Ybe1KB6YE8v2-1" target="fL2hwrwUGkBLxSaO8x_B-65">
          <mxGeometry relative="1" as="geometry">
            <mxPoint x="156" y="170" as="sourcePoint" />
            <mxPoint x="380" y="320" as="targetPoint" />
            <Array as="points">
              <mxPoint x="280" y="330" />
            </Array>
          </mxGeometry>
        </mxCell>
        <mxCell id="fL2hwrwUGkBLxSaO8x_B-67" value="" style="endArrow=none;html=1;rounded=0;entryX=0;entryY=0.5;entryDx=0;entryDy=0;" edge="1" parent="1" source="fL2hwrwUGkBLxSaO8x_B-65" target="XNacZ7h2Ybe1KB6YE8v2-6">
          <mxGeometry relative="1" as="geometry">
            <mxPoint x="880" y="370" as="sourcePoint" />
            <mxPoint x="1040" y="370" as="targetPoint" />
            <Array as="points">
              <mxPoint x="1110" y="410" />
              <mxPoint x="1180" y="230" />
            </Array>
          </mxGeometry>
        </mxCell>
        <mxCell id="fL2hwrwUGkBLxSaO8x_B-72" value="meriview" style="shape=rhombus;perimeter=rhombusPerimeter;whiteSpace=wrap;html=1;align=center;" vertex="1" parent="1">
          <mxGeometry x="270" y="570" width="120" height="60" as="geometry" />
        </mxCell>
        <mxCell id="fL2hwrwUGkBLxSaO8x_B-73" value="" style="endArrow=none;html=1;rounded=0;entryX=0;entryY=0;entryDx=0;entryDy=0;exitX=0.5;exitY=1;exitDx=0;exitDy=0;" edge="1" parent="1" source="fL2hwrwUGkBLxSaO8x_B-72" target="XNacZ7h2Ybe1KB6YE8v2-7">
          <mxGeometry relative="1" as="geometry">
            <mxPoint x="370" y="610" as="sourcePoint" />
            <mxPoint x="530" y="610" as="targetPoint" />
          </mxGeometry>
        </mxCell>
        <mxCell id="fL2hwrwUGkBLxSaO8x_B-74" value="" style="endArrow=none;html=1;rounded=0;exitX=0.75;exitY=1;exitDx=0;exitDy=0;" edge="1" parent="1" source="XNacZ7h2Ybe1KB6YE8v2-1" target="fL2hwrwUGkBLxSaO8x_B-72">
          <mxGeometry relative="1" as="geometry">
            <mxPoint x="70" y="390" as="sourcePoint" />
            <mxPoint x="230" y="390" as="targetPoint" />
            <Array as="points">
              <mxPoint x="200" y="570" />
            </Array>
          </mxGeometry>
        </mxCell>
        <mxCell id="fL2hwrwUGkBLxSaO8x_B-75" value="" style="endArrow=none;html=1;rounded=0;" edge="1" parent="1" source="XNacZ7h2Ybe1KB6YE8v2-2" target="fL2hwrwUGkBLxSaO8x_B-72">
          <mxGeometry relative="1" as="geometry">
            <mxPoint x="880" y="420" as="sourcePoint" />
            <mxPoint x="490" y="500" as="targetPoint" />
            <Array as="points">
              <mxPoint x="1130" y="590" />
              <mxPoint x="960" y="500" />
              <mxPoint x="640" y="480" />
            </Array>
          </mxGeometry>
        </mxCell>
        <mxCell id="fL2hwrwUGkBLxSaO8x_B-76" value="" style="endArrow=none;html=1;rounded=0;exitX=1;exitY=1;exitDx=0;exitDy=0;entryX=0.5;entryY=0;entryDx=0;entryDy=0;" edge="1" parent="1" source="fL2hwrwUGkBLxSaO8x_B-65" target="XNacZ7h2Ybe1KB6YE8v2-2">
          <mxGeometry relative="1" as="geometry">
            <mxPoint x="850" y="460" as="sourcePoint" />
            <mxPoint x="1400" y="490" as="targetPoint" />
            <Array as="points">
              <mxPoint x="1290" y="460" />
            </Array>
          </mxGeometry>
        </mxCell>
        <mxCell id="fL2hwrwUGkBLxSaO8x_B-81" value="1" style="text;strokeColor=none;fillColor=none;spacingLeft=4;spacingRight=4;overflow=hidden;rotatable=0;points=[[0,0.5],[1,0.5]];portConstraint=eastwest;fontSize=12;whiteSpace=wrap;html=1;" vertex="1" parent="1">
          <mxGeometry x="180" y="130" width="40" height="30" as="geometry" />
        </mxCell>
        <mxCell id="fL2hwrwUGkBLxSaO8x_B-82" value="M" style="text;strokeColor=none;fillColor=none;spacingLeft=4;spacingRight=4;overflow=hidden;rotatable=0;points=[[0,0.5],[1,0.5]];portConstraint=eastwest;fontSize=12;whiteSpace=wrap;html=1;" vertex="1" parent="1">
          <mxGeometry x="690" y="145" width="40" height="30" as="geometry" />
        </mxCell>
        <mxCell id="fL2hwrwUGkBLxSaO8x_B-83" value="N" style="text;strokeColor=none;fillColor=none;spacingLeft=4;spacingRight=4;overflow=hidden;rotatable=0;points=[[0,0.5],[1,0.5]];portConstraint=eastwest;fontSize=12;whiteSpace=wrap;html=1;" vertex="1" parent="1">
          <mxGeometry x="685" y="175" width="40" height="30" as="geometry" />
        </mxCell>
        <mxCell id="fL2hwrwUGkBLxSaO8x_B-84" value="M" style="text;strokeColor=none;fillColor=none;spacingLeft=4;spacingRight=4;overflow=hidden;rotatable=0;points=[[0,0.5],[1,0.5]];portConstraint=eastwest;fontSize=12;whiteSpace=wrap;html=1;" vertex="1" parent="1">
          <mxGeometry y="510" width="40" height="30" as="geometry" />
        </mxCell>
        <mxCell id="fL2hwrwUGkBLxSaO8x_B-86" value="M" style="text;strokeColor=none;fillColor=none;spacingLeft=4;spacingRight=4;overflow=hidden;rotatable=0;points=[[0,0.5],[1,0.5]];portConstraint=eastwest;fontSize=12;whiteSpace=wrap;html=1;" vertex="1" parent="1">
          <mxGeometry x="1285" y="155" width="40" height="30" as="geometry" />
        </mxCell>
        <mxCell id="fL2hwrwUGkBLxSaO8x_B-87" value="1" style="text;strokeColor=none;fillColor=none;spacingLeft=4;spacingRight=4;overflow=hidden;rotatable=0;points=[[0,0.5],[1,0.5]];portConstraint=eastwest;fontSize=12;whiteSpace=wrap;html=1;" vertex="1" parent="1">
          <mxGeometry x="170" y="165" width="40" height="30" as="geometry" />
        </mxCell>
        <mxCell id="fL2hwrwUGkBLxSaO8x_B-88" value="M" style="text;strokeColor=none;fillColor=none;spacingLeft=4;spacingRight=4;overflow=hidden;rotatable=0;points=[[0,0.5],[1,0.5]];portConstraint=eastwest;fontSize=12;whiteSpace=wrap;html=1;" vertex="1" parent="1">
          <mxGeometry x="1330" y="595" width="40" height="30" as="geometry" />
        </mxCell>
        <mxCell id="fL2hwrwUGkBLxSaO8x_B-90" value="1" style="text;strokeColor=none;fillColor=none;spacingLeft=4;spacingRight=4;overflow=hidden;rotatable=0;points=[[0,0.5],[1,0.5]];portConstraint=eastwest;fontSize=12;whiteSpace=wrap;html=1;" vertex="1" parent="1">
          <mxGeometry x="130" y="165" width="40" height="30" as="geometry" />
        </mxCell>
        <mxCell id="fL2hwrwUGkBLxSaO8x_B-91" value="M" style="text;strokeColor=none;fillColor=none;spacingLeft=4;spacingRight=4;overflow=hidden;rotatable=0;points=[[0,0.5],[1,0.5]];portConstraint=eastwest;fontSize=12;whiteSpace=wrap;html=1;" vertex="1" parent="1">
          <mxGeometry x="640" y="620" width="40" height="30" as="geometry" />
        </mxCell>
        <mxCell id="fL2hwrwUGkBLxSaO8x_B-92" value="M" style="text;strokeColor=none;fillColor=none;spacingLeft=4;spacingRight=4;overflow=hidden;rotatable=0;points=[[0,0.5],[1,0.5]];portConstraint=eastwest;fontSize=12;whiteSpace=wrap;html=1;" vertex="1" parent="1">
          <mxGeometry x="1270" y="635" width="40" height="30" as="geometry" />
        </mxCell>
        <mxCell id="fL2hwrwUGkBLxSaO8x_B-93" value="" style="endArrow=none;html=1;rounded=0;" edge="1" parent="1">
          <mxGeometry relative="1" as="geometry">
            <mxPoint x="1260" y="640" as="sourcePoint" />
            <mxPoint x="1270" y="620" as="targetPoint" />
          </mxGeometry>
        </mxCell>
        <mxCell id="fL2hwrwUGkBLxSaO8x_B-95" value="" style="endArrow=none;html=1;rounded=0;" edge="1" parent="1">
          <mxGeometry relative="1" as="geometry">
            <mxPoint x="1320" y="600" as="sourcePoint" />
            <mxPoint x="1340" y="590" as="targetPoint" />
          </mxGeometry>
        </mxCell>
        <mxCell id="fL2hwrwUGkBLxSaO8x_B-96" value="" style="endArrow=none;html=1;rounded=0;" edge="1" parent="1">
          <mxGeometry relative="1" as="geometry">
            <mxPoint x="1290" y="190" as="sourcePoint" />
            <mxPoint x="1270" y="170" as="targetPoint" />
          </mxGeometry>
        </mxCell>
        <mxCell id="fL2hwrwUGkBLxSaO8x_B-97" value="" style="endArrow=none;html=1;rounded=0;" edge="1" parent="1">
          <mxGeometry relative="1" as="geometry">
            <mxPoint x="680" y="180" as="sourcePoint" />
            <mxPoint x="680" y="160" as="targetPoint" />
          </mxGeometry>
        </mxCell>
        <mxCell id="fL2hwrwUGkBLxSaO8x_B-98" value="" style="endArrow=none;html=1;rounded=0;" edge="1" parent="1">
          <mxGeometry relative="1" as="geometry">
            <mxPoint x="690" y="220" as="sourcePoint" />
            <mxPoint x="675" y="200" as="targetPoint" />
          </mxGeometry>
        </mxCell>
        <mxCell id="fL2hwrwUGkBLxSaO8x_B-99" value="" style="endArrow=none;html=1;rounded=0;" edge="1" parent="1">
          <mxGeometry relative="1" as="geometry">
            <mxPoint x="195" y="170" as="sourcePoint" />
            <mxPoint x="205" y="150" as="targetPoint" />
          </mxGeometry>
        </mxCell>
        <mxCell id="fL2hwrwUGkBLxSaO8x_B-100" value="" style="endArrow=none;html=1;rounded=0;" edge="1" parent="1">
          <mxGeometry relative="1" as="geometry">
            <mxPoint x="170" y="200" as="sourcePoint" />
            <mxPoint x="195" y="190" as="targetPoint" />
          </mxGeometry>
        </mxCell>
        <mxCell id="fL2hwrwUGkBLxSaO8x_B-101" value="" style="endArrow=none;html=1;rounded=0;" edge="1" parent="1">
          <mxGeometry relative="1" as="geometry">
            <mxPoint x="130" y="200" as="sourcePoint" />
            <mxPoint x="160" y="200" as="targetPoint" />
          </mxGeometry>
        </mxCell>
        <mxCell id="fL2hwrwUGkBLxSaO8x_B-102" value="" style="endArrow=none;html=1;rounded=0;" edge="1" parent="1">
          <mxGeometry relative="1" as="geometry">
            <mxPoint x="629.71" y="650" as="sourcePoint" />
            <mxPoint x="629.71" y="620" as="targetPoint" />
          </mxGeometry>
        </mxCell>
        <mxCell id="fL2hwrwUGkBLxSaO8x_B-103" value="" style="endArrow=none;html=1;rounded=0;entryX=1;entryY=0;entryDx=0;entryDy=0;entryPerimeter=0;" edge="1" parent="1" target="fL2hwrwUGkBLxSaO8x_B-84">
          <mxGeometry relative="1" as="geometry">
            <mxPoint x="40" y="535" as="sourcePoint" />
            <mxPoint x="50" y="515" as="targetPoint" />
          </mxGeometry>
        </mxCell>
        <mxCell id="fL2hwrwUGkBLxSaO8x_B-106" value="" style="endArrow=none;html=1;rounded=0;exitX=1;exitY=1;exitDx=0;exitDy=0;" edge="1" parent="1" source="fL2hwrwUGkBLxSaO8x_B-107" target="XNacZ7h2Ybe1KB6YE8v2-1">
          <mxGeometry relative="1" as="geometry">
            <mxPoint x="-20" y="150" as="sourcePoint" />
            <mxPoint x="60" y="150" as="targetPoint" />
          </mxGeometry>
        </mxCell>
        <mxCell id="fL2hwrwUGkBLxSaO8x_B-107" value="role" style="ellipse;whiteSpace=wrap;html=1;align=center;" vertex="1" parent="1">
          <mxGeometry x="-120" y="90" width="100" height="40" as="geometry" />
        </mxCell>
      </root>
    </mxGraphModel>
  </diagram>
</mxfile>
